<?xml version="1.0" encoding="UTF-8"?>
<svg version="1.1" xmlns="http://www.w3.org/2000/svg" width="500" height="500">
<path d="M0 0 C165 0 330 0 500 0 C500 165 500 330 500 500 C335 500 170 500 0 500 C0 335 0 170 0 0 Z " fill="#161925" transform="translate(0,0)"/>
<path d="M0 0 C6.93 0 13.86 0 21 0 C20.99333817 2.54747452 20.98667633 5.09494904 20.97981262 7.71961975 C20.91842551 31.7464002 20.87382406 55.77317027 20.84456348 79.80001163 C20.82911989 92.15194363 20.80807843 104.50381793 20.77368164 116.85571289 C20.7437024 127.62643694 20.72440679 138.39711919 20.71773452 149.16788381 C20.71383668 154.86653822 20.70472876 160.56507309 20.68280983 166.26368904 C20.66230984 171.63739929 20.65619331 177.01094178 20.66067696 182.38468742 C20.65985776 184.34732859 20.65397322 186.30997589 20.64238358 188.27258301 C20.52068927 209.96093512 23.26499482 228.54994032 38.80078125 244.89453125 C56.52140572 261.70445982 82.18028444 266.76588318 105.8046875 266.2265625 C129.08086558 265.37404987 154.02469159 260.64773695 170.8125 243.3125 C183.26955803 227.957757 183.44895177 208.65240437 183.43237305 189.92797852 C183.44140777 187.84696884 183.45173914 185.76596446 183.46325684 183.68496704 C183.49065207 178.08064776 183.50008744 172.47642994 183.50611091 166.87205243 C183.51554038 160.99839649 183.54174725 155.12481498 183.56611633 149.25120544 C183.60965975 138.14881412 183.63828124 127.04643735 183.66143972 115.94398683 C183.68855679 103.2957107 183.73246414 90.6475099 183.77772844 77.99928772 C183.87040049 51.99956448 183.94156532 25.99982081 184 0 C190.93 0 197.86 0 205 0 C205.27157521 29.73307168 205.48627501 59.4660059 205.61278395 89.20004956 C205.62779149 92.7145859 205.64332345 96.22911974 205.65917969 99.74365234 C205.66232741 100.44329909 205.66547514 101.14294584 205.66871825 101.863794 C205.72086002 113.17573225 205.8154319 124.48693478 205.92583355 135.79843733 C206.03826247 147.4149925 206.10385143 159.03111996 206.12906194 170.6481936 C206.14468649 177.16959499 206.18131734 183.68933076 206.26876068 190.21019745 C206.35047079 196.35353876 206.37528895 202.49453548 206.35729218 208.63836861 C206.36058227 210.88781307 206.3843056 213.13733928 206.4304657 215.38631248 C206.79620411 234.13159898 206.79620411 234.13159898 200.9474957 240.60140729 C198.42843535 243.00160407 195.84981903 244.98684824 193 247 C192.10644814 247.64604573 192.10644814 247.64604573 191.19484472 248.30514288 C175.63291002 259.51657966 158.01904564 264.88601579 139.4375 268.6875 C137.8764856 269.00956421 137.8764856 269.00956421 136.28393555 269.33813477 C102.01014194 276.09357263 61.02364939 274.67670441 31 255 C14.91517775 243.8400125 5.49158885 228.02855547 1 209 C0.11438408 203.7709604 -0.14034771 198.7706084 -0.12025452 193.48951721 C-0.12110894 192.65865866 -0.12196337 191.82780011 -0.12284368 190.97176403 C-0.12448409 188.20193823 -0.11900077 185.43217369 -0.11352539 182.66235352 C-0.11324318 180.67119854 -0.11340191 178.68004346 -0.1139679 176.68888855 C-0.11425456 171.29277181 -0.108379 165.89667734 -0.10139394 160.50056577 C-0.09513859 154.85779512 -0.09455487 149.21502395 -0.09336853 143.57225037 C-0.09026165 132.89102283 -0.08205693 122.20980554 -0.07201904 111.52858251 C-0.06083794 99.36662151 -0.05534242 87.20466002 -0.05032361 75.04269516 C-0.03987379 50.02845757 -0.02208512 25.01422979 0 0 Z " fill="#F2F2F3" transform="translate(58,106)"/>
<path d="M0 0 C3.69846973 1.47938789 6.95363287 3.00985061 10.4375 4.875 C29.62081172 14.43202894 53.00470137 17.07185406 73.9375 20.5625 C103.54013839 25.5408929 136.50635751 31.98721782 155.46875 57.61328125 C164.6109506 71.86298678 166.2976104 88.85751172 163.61328125 105.38037109 C162.58055421 109.82213008 160.94054414 113.88624444 159 118 C158.27296875 119.56041016 158.27296875 119.56041016 157.53125 121.15234375 C147.64127036 139.98693732 128.70115032 151.17896157 109.00292969 157.65673828 C74.14343195 168.17305938 32.96644804 165.3247645 0 150 C0 144.06 0 138.12 0 132 C1.11375 132.845625 2.2275 133.69125 3.375 134.5625 C4.48488281 135.38621094 4.48488281 135.38621094 5.6171875 136.2265625 C7.15561901 137.37155906 8.68268759 138.53205901 10.1953125 139.7109375 C22.38867541 148.84562632 36.21902403 153.13020717 51 156 C51.95003906 156.19335938 52.90007812 156.38671875 53.87890625 156.5859375 C67.66883343 158.41538967 81.51081041 157.03542226 95 154 C95.96808594 153.80664062 96.93617188 153.61328125 97.93359375 153.4140625 C112.41863759 150.09950566 128.08127986 141.61613224 136.625 129.26171875 C145.15379855 115.23281431 148.17051247 101.66590189 145.3828125 85.3984375 C141.9434728 72.64548765 134.32142164 63.60416263 123 57 C110.23528956 50.60280209 96.84190523 46.85596166 82.78125 44.59765625 C81.56207886 44.39321396 80.34290771 44.18877167 79.08679199 43.97813416 C75.22586268 43.33122838 71.36321095 42.69562658 67.5 42.0625 C38.55569848 37.30636826 38.55569848 37.30636826 26.19921875 34.38671875 C25.38388672 34.1950563 24.56855469 34.00339386 23.72851562 33.80592346 C15.50392879 31.77845737 7.58031846 28.79015923 0 25 C0 16.75 0 8.5 0 0 Z " fill="#EFEFF0" transform="translate(279,198)"/>
<path d="M0 0 C1.28777344 0.020625 2.57554687 0.04125 3.90234375 0.0625 C25.30958008 0.89284129 52.04648282 6.68573525 68 22 C75.1202423 30.56215517 76.75069393 36.9170278 76 48 C74.40583386 52.78249842 72.18314505 55.21123663 68 58 C67.34 58 66.68 58 66 58 C65.85304688 57.40574219 65.70609375 56.81148437 65.5546875 56.19921875 C61.10871921 39.76957731 51.19052666 27.58116483 36.625 19 C25.16685931 12.56091667 13.78550575 9.46710419 1 7 C0.20368164 6.823479 -0.59263672 6.64695801 -1.41308594 6.46508789 C-23.33674142 2.52354734 -48.94547523 6.57220632 -67.77734375 18.453125 C-72.26475996 21.57617741 -76.14101728 25.14101728 -80 29 C-80 24.71 -80 20.42 -80 16 C-54.47254736 2.35126954 -28.70343703 -0.95281119 0 0 Z " fill="#ECECEE" transform="translate(359,111)"/>
</svg>
